<svg width="493" height="79" viewBox="0 0 493 79" fill="none" xmlns="http://www.w3.org/2000/svg">
<path fill-rule="evenodd" clip-rule="evenodd" d="M487.235 2.82238V17.4999C479.629 14.6296 472.857 13.1776 466.93 13.1776C463.419 13.1776 460.623 13.8282 458.521 15.0849C456.419 16.3516 455.346 17.9119 455.346 19.7532C455.346 22.2012 457.719 24.3786 462.498 26.3288L476.302 33.0444C487.464 38.3632 493 45.4257 493 54.2975C493 61.6744 490.064 67.5561 484.136 71.9109C478.252 76.3091 470.332 78.486 460.471 78.486C455.92 78.486 451.835 78.2913 448.206 77.8798C444.576 77.4895 440.404 76.6876 435.777 75.5398V60.1796C444.262 63.05 451.987 64.5019 458.943 64.5019C467.244 64.5019 471.372 62.0968 471.372 57.2437C471.372 54.8288 469.682 52.8786 466.247 51.3512L450.915 44.819C445.258 42.2626 441.054 39.1646 438.302 35.4928C435.593 31.7881 434.217 27.5417 434.217 22.6886C434.217 15.8972 437.077 10.4265 442.733 6.2669C448.433 2.13978 455.996 0.0708008 465.402 0.0708008C468.457 0.0708008 471.979 0.341868 475.88 0.839645C479.813 1.37094 483.595 2.02051 487.235 2.82238ZM52.9862 2.82238V17.4999C45.3792 14.6296 38.6182 13.1776 32.6908 13.1776C29.1693 13.1776 26.3849 13.8282 24.2827 15.0849C22.1806 16.3516 21.1078 17.9119 21.1078 19.7532C21.1078 22.2012 23.5136 24.3786 28.2918 26.3288L42.0963 33.0444C53.2134 38.3632 58.7617 45.4257 58.7617 54.2975C58.7617 61.6744 55.8145 67.5561 49.9305 71.9109C44.0037 76.3091 36.1261 78.486 26.233 78.486C21.6821 78.486 17.5858 78.2913 13.9563 77.8798C10.3264 77.4895 6.198 76.6876 1.53865 75.5398V60.1796C10.0557 63.05 17.7815 64.5019 24.6949 64.5019C32.9945 64.5019 37.1234 62.0968 37.1234 57.2437C37.1234 54.8288 35.4432 52.8786 32.0406 51.3512L16.7083 44.819C11.0092 42.2626 6.80488 39.1646 4.09584 35.4928C1.34342 31.7881 0 27.5417 0 22.6886C0 15.8972 2.83919 10.4265 8.52742 6.2669C14.1841 2.13978 21.7581 0.0708008 31.1635 0.0708008C34.2517 0.0708008 37.7298 0.341868 41.6743 0.839645C45.5749 1.37094 49.3562 2.02051 52.9862 2.82238ZM91.2903 1.44634V77.1105H68.806V1.44585L91.2903 1.44634ZM164.409 77.1105H108.682V1.44585H163.727V15.4309H130.32V32.21H159.294V44.8185H130.32V62.4324H164.409L164.409 77.1105ZM176.838 77.1105V1.44585H204.284L223.019 47.7653L242.621 1.44585H268.691V77.11H247.701V27.2061L225.923 77.8029H212.964L192.019 27.2061V77.1105H176.838ZM341.779 77.1105H286.051V1.44585H341.096V15.4309H307.872V32.21H336.847V44.8185H307.872V62.4324H341.779V77.1105ZM419.989 77.1105H396.141L369.378 28.5816V77.1105H354.207V1.44585H378.75L404.821 49.1408V1.44634H419.989V77.1105Z" fill="#009999"/>
</svg>
